<svg width="24" height="24" viewBox="0 0 24 24" xmlns="http://www.w3.org/2000/svg" fill="none" role="img" aria-label="Partner program icon">
  <path d="M3.5 7.25C5.4 4.8 8.1 3.5 11 3.5C13.5 3.5 15.8 4.4 17.6 6.1" stroke="#F97316" stroke-width="1.7" stroke-linecap="round"/>
  <path d="M10.15 11.15L8.85 9.85C7.95 8.95 6.45 8.95 5.55 9.85C4.65 10.75 4.65 12.25 5.55 13.15L7.85 15.45C8.75 16.35 10.25 16.35 11.15 15.45L12.45 14.15" stroke="#334155" stroke-width="1.6" stroke-linecap="round"/>
  <path d="M13.85 12.85L15.15 14.15C16.05 15.05 17.55 15.05 18.45 14.15C19.35 13.25 19.35 11.75 18.45 10.85L16.15 8.55C15.25 7.65 13.75 7.65 12.85 8.55L11.55 9.85" stroke="#334155" stroke-width="1.6" stroke-linecap="round"/>
  <path d="M9.95 12.05H14.05" stroke="#0F172A" stroke-width="1.45" stroke-linecap="round"/>
</svg>
